<svg width="40" height="40" viewBox="0 0 40 40" fill="none" xmlns="http://www.w3.org/2000/svg">
<path opacity="0.5" d="M40 20C40 31.0456 31.0456 40 20 40C8.9543 40 0 31.0456 0 20C0 8.9543 8.9543 0 20 0C31.0456 0 40 8.9543 40 20Z" fill="#5D913C"/>
<path d="M29.4831 11.6083C30.1723 12.4194 30.1723 13.7345 29.4831 14.5455L17.7184 28.3917C17.0292 29.2028 15.912 29.2028 15.2228 28.3917L10.5169 22.8532C9.82771 22.0421 9.82771 20.7272 10.5169 19.9161C11.206 19.105 12.3234 19.105 13.0125 19.9161L16.4706 23.9858L21.729 17.7971L26.9876 11.6083C27.6768 10.7972 28.7939 10.7972 29.4831 11.6083Z" fill="#BECFB3"/>
</svg>
