<svg width="53" height="42" viewBox="0 0 53 42" fill="none" xmlns="http://www.w3.org/2000/svg">
<path d="M52.4403 19.9396L46.7641 15.4405L27.8434 0.443606C27.6675 0.303042 27.4582 0.191474 27.2276 0.115336C26.9971 0.0391992 26.7498 0 26.5 0C26.2502 0 26.0029 0.0391992 25.7724 0.115336C25.5418 0.191474 25.3325 0.303042 25.1566 0.443606L6.23589 15.4405L0.559672 19.9396C0.382331 20.079 0.241572 20.2449 0.145514 20.4276C0.0494555 20.6104 0 20.8064 0 21.0043C0 21.2023 0.0494555 21.3983 0.145514 21.5811C0.241572 21.7638 0.382331 21.9297 0.559672 22.0691C0.735565 22.2097 0.944831 22.3213 1.1754 22.3974C1.40596 22.4735 1.65327 22.5127 1.90304 22.5127C2.15282 22.5127 2.40012 22.4735 2.63069 22.3974C2.86126 22.3213 3.07052 22.2097 3.24642 22.0691L5.68719 20.1195V40.5003C5.68719 40.8981 5.88653 41.2795 6.24137 41.5608C6.5962 41.842 7.07746 42 7.57926 42H45.4207C45.9225 42 46.4038 41.842 46.7586 41.5608C47.1135 41.2795 47.3128 40.8981 47.3128 40.5003V20.1195L49.7536 22.0691C49.9295 22.2097 50.1387 22.3213 50.3693 22.3974C50.5999 22.4735 50.8472 22.5127 51.097 22.5127C51.3467 22.5127 51.594 22.4735 51.8246 22.3974C52.0552 22.3213 52.2644 22.2097 52.4403 22.0691C52.6177 21.9297 52.7584 21.7638 52.8545 21.5811C52.9505 21.3983 53 21.2023 53 21.0043C53 20.8064 52.9505 20.6104 52.8545 20.4276C52.7584 20.2449 52.6177 20.079 52.4403 19.9396ZM43.5287 39.0006H9.47134V17.1202L26.5 3.62295L43.5287 17.1202V39.0006Z" fill="#707070"/>
<path d="M16 22H37" stroke="#707070" stroke-width="4" stroke-linecap="round"/>
<path d="M16 31H37" stroke="#707070" stroke-width="4" stroke-linecap="round"/>
</svg>
