<svg width="250" height="202" viewBox="0 0 250 202" fill="none" xmlns="http://www.w3.org/2000/svg">
<g clip-path="url(#clip0_92_13)">
<path fill-rule="evenodd" clip-rule="evenodd" d="M125.001 0L250 202H0L125.001 0ZM34.0503 183.633L84.0234 102.877L125.001 36.6582L34.0503 183.633Z" fill="#5D913C"/>
<path d="M125 101L136.73 170.052L183.93 118.303L156.465 182.735L224.15 164.72L166.211 204.075L232.891 225.512L162.872 227.296L207.377 281.38L147.509 245.025L155.709 314.585L125 251.634L94.2912 314.585L102.491 245.025L42.6233 281.38L87.1281 227.296L17.1095 225.512L83.7895 204.075L25.8501 164.72L93.5349 182.735L66.0702 118.303L113.27 170.052L125 101Z" fill="white"/>
</g>
<defs>
<clipPath id="clip0_92_13">
<rect width="250" height="202" fill="white"/>
</clipPath>
</defs>
</svg>
